<svg xmlns="http://www.w3.org/2000/svg" xmlns:xlink="http://www.w3.org/1999/xlink" version="1.1"
	id="Layer_1" x="0px" y="0px" enable-background="new 0 0 450 450" xml:space="preserve"
	viewBox="78.41 95.28 294.98 260.64">
<path fill="#465377" stroke="none" d=" M82.617798,99.630005   C86.353455,98.025307 89.800568,95.624352 93.305969,95.535980   C109.457901,95.128807 125.626328,95.316650 141.788315,95.396645   C148.356857,95.429161 149.934616,97.215927 150.103699,103.778908   C150.531723,120.392235 149.593735,121.681412 133.120041,121.119888   C128.127045,120.949692 123.123131,121.047371 118.124901,121.094986   C109.321236,121.178864 104.849045,125.560410 104.792786,134.235077   C104.730110,143.898834 104.811470,153.563553 104.748322,163.227325   C104.702553,170.231277 102.842819,172.018265 95.839897,172.047943   C92.174271,172.063477 88.508324,172.025131 84.842865,172.054672   C80.995148,172.085678 78.867134,170.160538 78.675262,166.380966   C78.455872,162.059158 78.417953,157.725006 78.411949,153.396057   C78.393242,139.899643 78.430084,126.403168 78.438454,112.906715   C78.441391,108.175423 78.746292,103.541069 82.617798,99.630005  z"/>
<path fill="#465377" stroke="none" d=" M103.791321,282.543335   C104.214790,293.207520 104.602692,303.495300 104.692322,313.785675   C104.805519,326.781097 107.791878,329.836945 120.965385,329.843628   C127.952988,329.847168 134.941391,329.795258 141.927933,329.885132   C147.231934,329.953308 149.888382,332.503052 150.104645,337.777039   C150.261261,341.596649 150.121033,345.428131 150.127792,349.254303   C150.135544,353.638916 147.564117,355.764404 143.573639,355.792969   C126.438492,355.915710 109.298569,356.028198 92.167297,355.737274   C84.351227,355.604553 78.839302,350.013336 78.679932,341.883575   C78.318100,323.424561 78.445076,304.955353 78.442581,286.490295   C78.441948,281.863770 80.832413,279.433929 85.575554,279.472778   C89.734322,279.506866 93.920105,279.204376 98.040947,279.601135   C99.966270,279.786499 101.766426,281.271881 103.791321,282.543335  z"/>
<path fill="#465377" stroke="none" d=" M307.704926,355.746765   C303.076813,354.879730 301.578888,352.197021 301.773773,348.113129   C301.932404,344.788788 301.724335,341.448212 301.835724,338.120087   C302.027679,332.384155 304.466919,329.930756 310.118286,329.872864   C317.947266,329.792725 325.777710,329.865051 333.607330,329.830170   C343.206085,329.787415 347.145508,325.806732 347.171478,316.103638   C347.196442,306.774689 347.087341,297.444794 347.183136,288.116821   C347.254211,281.194702 348.867950,279.703888 355.797089,279.669983   C359.628326,279.651245 363.461273,279.631073 367.290771,279.723389   C371.042084,279.813843 373.231567,281.649811 373.230743,285.581940   C373.226776,304.905151 373.386688,324.230988 373.099915,343.550171   C372.993744,350.705414 366.364685,355.822693 358.110962,355.848419   C341.452484,355.900330 324.793610,355.825745 307.704926,355.746765  z"/>
<path fill="#465377" stroke="none" d=" M335.963806,95.622955   C343.246613,95.551346 350.065826,95.511078 356.883911,95.400421   C367.778687,95.223595 373.242828,100.416695 373.305511,111.394936   C373.406250,129.039230 373.391266,146.684448 373.352905,164.329117   C373.339294,170.593674 371.871155,171.997238 365.727692,172.055374   C362.232361,172.088455 358.736206,172.082443 355.240753,172.054245   C349.212494,172.005615 347.237366,170.152161 347.162811,163.970093   C347.042328,153.983795 347.142548,143.995071 347.090027,134.007675   C347.045074,125.459282 342.761688,121.162827 334.204742,121.106598   C326.215027,121.054100 318.224182,121.163254 310.234680,121.096130   C304.569855,121.048538 302.023254,118.555748 301.835693,112.950523   C301.724426,109.625153 301.765350,106.291779 301.833588,102.963974   C301.943054,97.625343 303.691803,95.753769 309.044403,95.680573   C317.861450,95.559998 326.681122,95.631927 335.963806,95.622955  z"/>
<path fill="#fff" stroke="none" d=" M237.409073,223.499710   C228.568329,244.868347 219.917984,265.901703 211.241882,286.924377   C210.483307,288.762451 209.738586,290.648468 208.670761,292.308563   C205.752472,296.845428 200.138336,298.245911 195.541794,295.757202   C190.627182,293.096252 189.098297,289.012054 191.321564,283.603119   C206.972946,245.525177 222.680038,207.470108 238.365402,169.406113   C239.756668,166.029892 240.969559,162.570938 242.529755,159.275620   C245.220078,153.593231 250.240555,151.698441 255.732849,154.064987   C261.393860,156.504227 263.390839,161.053482 260.929382,167.051178   C253.238602,185.790817 245.383820,204.463150 237.409073,223.499710  z"/>
<path fill="#fff" stroke="none" d=" M290.098206,214.899200   C283.043579,208.031906 276.193634,201.462143 269.470947,194.764648   C264.731628,190.043106 264.407745,184.439926 268.394318,180.202606   C272.387787,175.957947 278.201324,175.911118 283.013641,180.525787   C295.632355,192.626205 308.164612,204.818588 320.606628,217.100662   C325.849243,222.275925 325.758881,228.621567 320.517120,233.833832   C308.120026,246.161224 295.655426,258.421112 283.164856,270.653961   C278.400024,275.320465 272.839905,275.526520 268.606628,271.393127   C264.197296,267.087830 264.415741,261.453979 269.393219,256.486450   C279.292419,246.607010 289.277740,236.813904 299.219727,226.977264   C299.685089,226.516846 300.075134,225.980331 300.599396,225.362366   C297.161255,221.931595 293.759247,218.536865 290.098206,214.899200  z"/>
<path fill="#fff" stroke="none" d=" M172.353424,246.653046   C176.037415,250.286636 179.534378,253.614456 182.891586,257.077698   C187.167648,261.488800 187.243561,267.219971 183.219055,271.287140   C179.122131,275.427521 173.601395,275.428528 169.093872,271.010559   C156.382187,258.551331 143.721313,246.039581 131.119904,233.468842   C126.625305,228.985153 126.217461,222.795120 130.684540,218.293396   C143.689545,205.187561 156.897308,192.278580 170.220337,179.495392   C174.172012,175.703857 179.431595,176.253250 183.174789,180.071960   C187.008377,183.982941 187.406662,189.412598 183.464355,193.469254   C175.236389,201.935791 166.712112,210.115005 158.279327,218.381424   C155.914490,220.699615 153.444351,222.910370 151.022614,225.170349   C158.285416,232.486694 165.194870,239.447067 172.353424,246.653046  z"/>
</svg>