<svg width="246.797" height="35.449" viewBox="0 0 246.797 35.449" xmlns="http://www.w3.org/2000/svg"><g id="svgGroup" stroke-linecap="round" fill-rule="evenodd" font-size="9pt" stroke="#000000" stroke-width="0" fill="#000000" style="stroke:#000000;stroke-width:0;fill:#000000"><path d="M 119.121 1.523 L 114.434 1.523 L 114.434 33.633 L 117.598 33.633 Q 117.891 33.633 118.184 33.691 Q 119.121 33.867 119.121 35.156 L 105.059 35.156 L 105.059 33.633 L 109.746 33.633 L 109.746 5.273 L 96.211 35.449 L 94.98 35.449 L 82.148 8.438 L 82.148 33.633 L 85.313 33.633 Q 85.605 33.633 85.898 33.691 Q 86.836 33.867 86.836 35.156 L 75.117 35.156 L 75.117 33.633 L 79.805 33.633 L 79.805 1.523 L 75.117 1.523 L 75.117 0 L 83.496 0 L 97.09 28.652 L 109.746 0 L 119.121 0 L 119.121 1.523 Z M 0 35.156 L 0 33.633 L 4.688 33.633 L 4.688 1.523 L 0 1.523 L 0 0 L 14.355 0 L 14.355 1.523 L 9.727 1.523 L 9.727 16.172 L 27.715 16.172 L 27.715 1.523 L 23.027 1.523 L 23.027 0 L 37.383 0 L 37.383 1.523 L 32.754 1.523 L 32.754 33.633 L 35.859 33.633 Q 36.152 33.633 36.445 33.691 Q 37.383 33.867 37.383 35.156 L 23.027 35.156 L 23.027 33.633 L 27.715 33.633 L 27.715 17.871 L 9.727 17.871 L 9.727 33.633 L 12.832 33.633 Q 13.125 33.633 13.418 33.691 Q 14.355 33.867 14.355 35.156 L 0 35.156 Z M 171.152 35.156 L 171.152 33.633 L 175.84 33.633 L 175.84 1.523 L 171.152 1.523 L 171.152 0 L 185.508 0 L 185.508 1.523 L 180.879 1.523 L 180.879 16.172 L 198.867 16.172 L 198.867 1.523 L 194.18 1.523 L 194.18 0 L 208.535 0 L 208.535 1.523 L 203.906 1.523 L 203.906 33.633 L 207.012 33.633 Q 207.305 33.633 207.598 33.691 Q 208.535 33.867 208.535 35.156 L 194.18 35.156 L 194.18 33.633 L 198.867 33.633 L 198.867 17.871 L 180.879 17.871 L 180.879 33.633 L 183.984 33.633 Q 184.277 33.633 184.57 33.691 Q 185.508 33.867 185.508 35.156 L 171.152 35.156 Z M 48.34 35.156 L 48.34 33.633 L 53.906 33.633 L 53.906 1.523 L 50.742 1.523 Q 46.23 1.875 44.355 7.617 L 43.418 11.543 L 41.777 11.543 L 42.07 0 L 71.016 0 L 71.309 11.543 L 69.668 11.543 L 68.73 7.617 Q 68.672 7.5 68.672 7.266 Q 67.09 1.523 62.344 1.523 L 58.945 1.523 L 58.945 33.633 L 62.93 33.633 Q 63.223 33.633 63.516 33.691 Q 64.453 33.867 64.453 35.156 L 48.34 35.156 Z M 123.223 35.156 L 123.223 33.633 L 127.91 33.633 L 127.91 1.523 L 123.223 1.523 L 123.223 0 L 137.871 0 L 137.871 1.523 L 132.949 1.523 L 132.949 33.633 L 140.977 33.633 Q 141.621 33.633 142.324 33.516 Q 145.605 32.754 147.012 27.363 L 148.008 23.438 L 149.18 23.438 L 148.887 35.156 L 123.223 35.156 Z M 234.141 35.156 L 234.141 33.633 L 237.949 33.633 L 233.555 22.266 L 221.309 22.266 L 216.914 33.633 L 219.785 33.633 Q 220.078 33.633 220.371 33.691 Q 221.309 33.867 221.309 35.156 L 210.879 35.156 L 210.879 33.633 L 214.57 33.633 L 227.695 0 L 229.863 0 L 243.281 33.633 L 245.273 33.633 Q 245.566 33.633 245.859 33.691 Q 246.797 33.867 246.797 35.156 L 234.141 35.156 Z M 152.109 35.156 L 152.109 33.633 L 156.797 33.633 L 156.797 1.523 L 152.109 1.523 L 152.109 0 L 166.465 0 L 166.465 1.523 L 161.836 1.523 L 161.836 33.633 L 164.941 33.633 Q 165.234 33.633 165.527 33.691 Q 166.465 33.867 166.465 35.156 L 152.109 35.156 Z M 227.402 6.387 L 232.91 20.566 L 221.953 20.566 L 227.402 6.387 Z" vector-effect="non-scaling-stroke"/></g></svg>